<mxfile host="65bd71144e">
    <diagram id="8hJcEPbwrmqnjjy3qWb2" name="Page-1">
        <mxGraphModel dx="1118" dy="612" grid="1" gridSize="10" guides="1" tooltips="1" connect="1" arrows="1" fold="1" page="1" pageScale="1" pageWidth="1169" pageHeight="827" math="0" shadow="0">
            <root>
                <mxCell id="0"/>
                <mxCell id="1" parent="0"/>
                <mxCell id="7" style="edgeStyle=none;html=1;exitX=0.5;exitY=1;exitDx=0;exitDy=0;entryX=0.5;entryY=0;entryDx=0;entryDy=0;" edge="1" parent="1" source="2" target="3">
                    <mxGeometry relative="1" as="geometry"/>
                </mxCell>
                <mxCell id="2" value="Mode Choosing" style="rounded=1;whiteSpace=wrap;html=1;" vertex="1" parent="1">
                    <mxGeometry x="560" y="160" width="120" height="80" as="geometry"/>
                </mxCell>
                <mxCell id="8" style="edgeStyle=none;html=1;exitX=0;exitY=0.5;exitDx=0;exitDy=0;entryX=1;entryY=0.5;entryDx=0;entryDy=0;" edge="1" parent="1" source="3" target="4">
                    <mxGeometry relative="1" as="geometry"/>
                </mxCell>
                <mxCell id="3" value="Water Setting" style="rounded=1;whiteSpace=wrap;html=1;" vertex="1" parent="1">
                    <mxGeometry x="560" y="320" width="120" height="80" as="geometry"/>
                </mxCell>
                <mxCell id="9" style="edgeStyle=none;html=1;exitX=0.5;exitY=0;exitDx=0;exitDy=0;entryX=0.5;entryY=1;entryDx=0;entryDy=0;" edge="1" parent="1" source="4" target="5">
                    <mxGeometry relative="1" as="geometry"/>
                </mxCell>
                <mxCell id="4" value="Brewing" style="rounded=1;whiteSpace=wrap;html=1;" vertex="1" parent="1">
                    <mxGeometry x="360" y="320" width="120" height="80" as="geometry"/>
                </mxCell>
                <mxCell id="6" style="edgeStyle=none;html=1;exitX=1;exitY=0.5;exitDx=0;exitDy=0;" edge="1" parent="1" source="5" target="2">
                    <mxGeometry relative="1" as="geometry"/>
                </mxCell>
                <mxCell id="5" value="IDLE" style="rounded=1;whiteSpace=wrap;html=1;" vertex="1" parent="1">
                    <mxGeometry x="360" y="160" width="120" height="80" as="geometry"/>
                </mxCell>
                <mxCell id="10" value="三段式" style="rounded=1;whiteSpace=wrap;html=1;" vertex="1" parent="1">
                    <mxGeometry x="1000" y="80" width="80" height="40" as="geometry"/>
                </mxCell>
                <mxCell id="11" value="一段式" style="rounded=1;whiteSpace=wrap;html=1;" vertex="1" parent="1">
                    <mxGeometry x="760" y="80" width="80" height="40" as="geometry"/>
                </mxCell>
                <mxCell id="12" value="二段式" style="rounded=1;whiteSpace=wrap;html=1;" vertex="1" parent="1">
                    <mxGeometry x="880" y="80" width="80" height="40" as="geometry"/>
                </mxCell>
                <mxCell id="13" value="preinfusion" style="rounded=0;whiteSpace=wrap;html=1;" vertex="1" parent="1">
                    <mxGeometry x="760" y="160" width="80" height="80" as="geometry"/>
                </mxCell>
                <mxCell id="14" value="preinfusion" style="rounded=0;whiteSpace=wrap;html=1;" vertex="1" parent="1">
                    <mxGeometry x="880" y="160" width="80" height="60" as="geometry"/>
                </mxCell>
                <mxCell id="15" value="preinfusion" style="rounded=0;whiteSpace=wrap;html=1;" vertex="1" parent="1">
                    <mxGeometry x="1000" y="160" width="80" height="40" as="geometry"/>
                </mxCell>
                <mxCell id="16" value="pouring" style="rounded=0;whiteSpace=wrap;html=1;" vertex="1" parent="1">
                    <mxGeometry x="760" y="240" width="80" height="140" as="geometry"/>
                </mxCell>
                <mxCell id="17" value="pouring" style="rounded=0;whiteSpace=wrap;html=1;" vertex="1" parent="1">
                    <mxGeometry x="880" y="220" width="80" height="70" as="geometry"/>
                </mxCell>
                <mxCell id="18" value="1spot&lt;br&gt;pouring" style="rounded=0;whiteSpace=wrap;html=1;" vertex="1" parent="1">
                    <mxGeometry x="880" y="330" width="80" height="70" as="geometry"/>
                </mxCell>
                <mxCell id="19" value="Stop" style="rounded=0;whiteSpace=wrap;html=1;" vertex="1" parent="1">
                    <mxGeometry x="880" y="290" width="80" height="40" as="geometry"/>
                </mxCell>
                <mxCell id="20" value="pouring" style="rounded=0;whiteSpace=wrap;html=1;" vertex="1" parent="1">
                    <mxGeometry x="1000" y="200" width="80" height="50" as="geometry"/>
                </mxCell>
                <mxCell id="21" value="Stop" style="rounded=0;whiteSpace=wrap;html=1;" vertex="1" parent="1">
                    <mxGeometry x="1000" y="250" width="80" height="30" as="geometry"/>
                </mxCell>
                <mxCell id="22" value="poring" style="rounded=0;whiteSpace=wrap;html=1;" vertex="1" parent="1">
                    <mxGeometry x="1000" y="280" width="80" height="50" as="geometry"/>
                </mxCell>
                <mxCell id="23" value="Stop" style="rounded=0;whiteSpace=wrap;html=1;" vertex="1" parent="1">
                    <mxGeometry x="1000" y="330" width="80" height="30" as="geometry"/>
                </mxCell>
                <mxCell id="24" value="1spot&lt;br&gt;pouring" style="rounded=0;whiteSpace=wrap;html=1;" vertex="1" parent="1">
                    <mxGeometry x="1000" y="360" width="80" height="50" as="geometry"/>
                </mxCell>
            </root>
        </mxGraphModel>
    </diagram>
    <diagram id="ed2Np2Wzmw_Jz15Y1jRE" name="Page-2">
        <mxGraphModel dx="1118" dy="495" grid="1" gridSize="10" guides="1" tooltips="1" connect="1" arrows="1" fold="1" page="1" pageScale="1" pageWidth="1169" pageHeight="827" math="0" shadow="0">
            <root>
                <mxCell id="LT4Kte8hWnlcqvlqRsRe-0"/>
                <mxCell id="LT4Kte8hWnlcqvlqRsRe-1" parent="LT4Kte8hWnlcqvlqRsRe-0"/>
                <mxCell id="C49u5-LEwqkDRs2ZQ6qo-0" value="" style="rounded=0;whiteSpace=wrap;html=1;fillColor=none;dashed=1;" vertex="1" parent="LT4Kte8hWnlcqvlqRsRe-1">
                    <mxGeometry x="170" y="60" width="400" height="370" as="geometry"/>
                </mxCell>
                <mxCell id="LT4Kte8hWnlcqvlqRsRe-7" style="edgeStyle=elbowEdgeStyle;rounded=0;html=1;exitX=1;exitY=0.5;exitDx=0;exitDy=0;entryX=0;entryY=0.5;entryDx=0;entryDy=0;endArrow=none;endFill=0;" edge="1" parent="LT4Kte8hWnlcqvlqRsRe-1" source="LT4Kte8hWnlcqvlqRsRe-2" target="LT4Kte8hWnlcqvlqRsRe-3">
                    <mxGeometry relative="1" as="geometry"/>
                </mxCell>
                <mxCell id="LT4Kte8hWnlcqvlqRsRe-9" style="edgeStyle=elbowEdgeStyle;rounded=0;html=1;exitX=1;exitY=0.5;exitDx=0;exitDy=0;entryX=0;entryY=0.5;entryDx=0;entryDy=0;endArrow=none;endFill=0;" edge="1" parent="LT4Kte8hWnlcqvlqRsRe-1" source="LT4Kte8hWnlcqvlqRsRe-2" target="LT4Kte8hWnlcqvlqRsRe-8">
                    <mxGeometry relative="1" as="geometry"/>
                </mxCell>
                <mxCell id="LT4Kte8hWnlcqvlqRsRe-14" style="edgeStyle=elbowEdgeStyle;rounded=0;html=1;exitX=1;exitY=0.5;exitDx=0;exitDy=0;entryX=0;entryY=0.5;entryDx=0;entryDy=0;endArrow=none;endFill=0;" edge="1" parent="LT4Kte8hWnlcqvlqRsRe-1" source="LT4Kte8hWnlcqvlqRsRe-2" target="LT4Kte8hWnlcqvlqRsRe-11">
                    <mxGeometry relative="1" as="geometry">
                        <Array as="points">
                            <mxPoint x="360" y="210"/>
                        </Array>
                    </mxGeometry>
                </mxCell>
                <mxCell id="LT4Kte8hWnlcqvlqRsRe-21" style="edgeStyle=elbowEdgeStyle;rounded=0;html=1;exitX=1;exitY=0.5;exitDx=0;exitDy=0;endArrow=none;endFill=0;entryX=0;entryY=0.75;entryDx=0;entryDy=0;" edge="1" parent="LT4Kte8hWnlcqvlqRsRe-1" source="LT4Kte8hWnlcqvlqRsRe-2" target="LT4Kte8hWnlcqvlqRsRe-18">
                    <mxGeometry relative="1" as="geometry">
                        <mxPoint x="790" y="390" as="targetPoint"/>
                        <Array as="points">
                            <mxPoint x="360" y="300"/>
                        </Array>
                    </mxGeometry>
                </mxCell>
                <mxCell id="LT4Kte8hWnlcqvlqRsRe-2" value="state_FSM" style="rounded=0;whiteSpace=wrap;html=1;" vertex="1" parent="LT4Kte8hWnlcqvlqRsRe-1">
                    <mxGeometry x="200" y="200" width="120" height="60" as="geometry"/>
                </mxCell>
                <mxCell id="LT4Kte8hWnlcqvlqRsRe-13" style="edgeStyle=elbowEdgeStyle;rounded=0;html=1;exitX=1;exitY=0.5;exitDx=0;exitDy=0;entryX=0;entryY=0.75;entryDx=0;entryDy=0;endArrow=none;endFill=0;" edge="1" parent="LT4Kte8hWnlcqvlqRsRe-1" source="LT4Kte8hWnlcqvlqRsRe-3" target="LT4Kte8hWnlcqvlqRsRe-11">
                    <mxGeometry relative="1" as="geometry"/>
                </mxCell>
                <mxCell id="LT4Kte8hWnlcqvlqRsRe-20" style="edgeStyle=elbowEdgeStyle;rounded=0;html=1;exitX=1;exitY=0.5;exitDx=0;exitDy=0;entryX=0;entryY=0.5;entryDx=0;entryDy=0;endArrow=none;endFill=0;" edge="1" parent="LT4Kte8hWnlcqvlqRsRe-1" source="LT4Kte8hWnlcqvlqRsRe-3" target="LT4Kte8hWnlcqvlqRsRe-18">
                    <mxGeometry relative="1" as="geometry">
                        <Array as="points">
                            <mxPoint x="560" y="300"/>
                        </Array>
                    </mxGeometry>
                </mxCell>
                <mxCell id="LT4Kte8hWnlcqvlqRsRe-3" value="Mode_FSM" style="rounded=0;whiteSpace=wrap;html=1;" vertex="1" parent="LT4Kte8hWnlcqvlqRsRe-1">
                    <mxGeometry x="400" y="200" width="120" height="60" as="geometry"/>
                </mxCell>
                <mxCell id="LT4Kte8hWnlcqvlqRsRe-5" style="edgeStyle=elbowEdgeStyle;html=1;exitX=1;exitY=0.5;exitDx=0;exitDy=0;entryX=0;entryY=0.5;entryDx=0;entryDy=0;rounded=0;endArrow=none;endFill=0;" edge="1" parent="LT4Kte8hWnlcqvlqRsRe-1" source="LT4Kte8hWnlcqvlqRsRe-4" target="LT4Kte8hWnlcqvlqRsRe-2">
                    <mxGeometry relative="1" as="geometry"/>
                </mxCell>
                <mxCell id="LT4Kte8hWnlcqvlqRsRe-6" style="edgeStyle=elbowEdgeStyle;rounded=0;html=1;exitX=1;exitY=0.5;exitDx=0;exitDy=0;entryX=0;entryY=0.75;entryDx=0;entryDy=0;endArrow=none;endFill=0;" edge="1" parent="LT4Kte8hWnlcqvlqRsRe-1" source="LT4Kte8hWnlcqvlqRsRe-4" target="LT4Kte8hWnlcqvlqRsRe-3">
                    <mxGeometry relative="1" as="geometry">
                        <Array as="points">
                            <mxPoint x="380" y="280"/>
                        </Array>
                    </mxGeometry>
                </mxCell>
                <mxCell id="LT4Kte8hWnlcqvlqRsRe-10" style="edgeStyle=elbowEdgeStyle;rounded=0;html=1;exitX=1;exitY=0.5;exitDx=0;exitDy=0;entryX=0;entryY=0.75;entryDx=0;entryDy=0;endArrow=none;endFill=0;" edge="1" parent="LT4Kte8hWnlcqvlqRsRe-1" source="LT4Kte8hWnlcqvlqRsRe-4" target="LT4Kte8hWnlcqvlqRsRe-8">
                    <mxGeometry relative="1" as="geometry">
                        <Array as="points">
                            <mxPoint x="380" y="240"/>
                        </Array>
                    </mxGeometry>
                </mxCell>
                <mxCell id="LT4Kte8hWnlcqvlqRsRe-4" value="keyboard" style="rounded=0;whiteSpace=wrap;html=1;" vertex="1" parent="LT4Kte8hWnlcqvlqRsRe-1">
                    <mxGeometry x="40" y="280" width="120" height="60" as="geometry"/>
                </mxCell>
                <mxCell id="LT4Kte8hWnlcqvlqRsRe-12" style="edgeStyle=elbowEdgeStyle;rounded=0;html=1;exitX=1;exitY=0.5;exitDx=0;exitDy=0;entryX=0;entryY=0.25;entryDx=0;entryDy=0;endArrow=none;endFill=0;" edge="1" parent="LT4Kte8hWnlcqvlqRsRe-1" source="LT4Kte8hWnlcqvlqRsRe-8" target="LT4Kte8hWnlcqvlqRsRe-11">
                    <mxGeometry relative="1" as="geometry">
                        <Array as="points">
                            <mxPoint x="570" y="170"/>
                        </Array>
                    </mxGeometry>
                </mxCell>
                <mxCell id="LT4Kte8hWnlcqvlqRsRe-19" style="edgeStyle=elbowEdgeStyle;rounded=0;html=1;exitX=1;exitY=0.5;exitDx=0;exitDy=0;endArrow=none;endFill=0;entryX=0;entryY=0.25;entryDx=0;entryDy=0;" edge="1" parent="LT4Kte8hWnlcqvlqRsRe-1" source="LT4Kte8hWnlcqvlqRsRe-8" target="LT4Kte8hWnlcqvlqRsRe-18">
                    <mxGeometry relative="1" as="geometry">
                        <Array as="points">
                            <mxPoint x="570" y="250"/>
                        </Array>
                    </mxGeometry>
                </mxCell>
                <mxCell id="LT4Kte8hWnlcqvlqRsRe-8" value="ratio_FSM" style="rounded=0;whiteSpace=wrap;html=1;" vertex="1" parent="LT4Kte8hWnlcqvlqRsRe-1">
                    <mxGeometry x="400" y="120" width="120" height="60" as="geometry"/>
                </mxCell>
                <mxCell id="LT4Kte8hWnlcqvlqRsRe-22" style="edgeStyle=elbowEdgeStyle;rounded=0;html=1;entryX=0;entryY=0.5;entryDx=0;entryDy=0;endArrow=none;endFill=0;" edge="1" parent="LT4Kte8hWnlcqvlqRsRe-1" target="LT4Kte8hWnlcqvlqRsRe-15">
                    <mxGeometry relative="1" as="geometry">
                        <mxPoint x="720" y="190" as="sourcePoint"/>
                    </mxGeometry>
                </mxCell>
                <mxCell id="LT4Kte8hWnlcqvlqRsRe-23" style="edgeStyle=elbowEdgeStyle;rounded=0;html=1;exitX=1;exitY=0.5;exitDx=0;exitDy=0;entryX=0;entryY=0.5;entryDx=0;entryDy=0;endArrow=none;endFill=0;" edge="1" parent="LT4Kte8hWnlcqvlqRsRe-1" source="LT4Kte8hWnlcqvlqRsRe-11" target="LT4Kte8hWnlcqvlqRsRe-16">
                    <mxGeometry relative="1" as="geometry"/>
                </mxCell>
                <mxCell id="LT4Kte8hWnlcqvlqRsRe-24" style="edgeStyle=elbowEdgeStyle;rounded=0;html=1;exitX=1;exitY=0.5;exitDx=0;exitDy=0;entryX=0;entryY=0.5;entryDx=0;entryDy=0;endArrow=none;endFill=0;" edge="1" parent="LT4Kte8hWnlcqvlqRsRe-1" source="LT4Kte8hWnlcqvlqRsRe-11" target="LT4Kte8hWnlcqvlqRsRe-17">
                    <mxGeometry relative="1" as="geometry"/>
                </mxCell>
                <mxCell id="LT4Kte8hWnlcqvlqRsRe-25" style="edgeStyle=elbowEdgeStyle;rounded=0;html=1;exitX=1;exitY=0.5;exitDx=0;exitDy=0;endArrow=none;endFill=0;" edge="1" parent="LT4Kte8hWnlcqvlqRsRe-1" source="LT4Kte8hWnlcqvlqRsRe-11">
                    <mxGeometry relative="1" as="geometry">
                        <mxPoint x="800" y="320" as="targetPoint"/>
                    </mxGeometry>
                </mxCell>
                <mxCell id="LT4Kte8hWnlcqvlqRsRe-11" value="pouring_state_FSM" style="rounded=0;whiteSpace=wrap;html=1;" vertex="1" parent="LT4Kte8hWnlcqvlqRsRe-1">
                    <mxGeometry x="600" y="160" width="120" height="60" as="geometry"/>
                </mxCell>
                <mxCell id="LT4Kte8hWnlcqvlqRsRe-15" value="water_pump" style="rounded=0;whiteSpace=wrap;html=1;" vertex="1" parent="LT4Kte8hWnlcqvlqRsRe-1">
                    <mxGeometry x="800" y="80" width="120" height="60" as="geometry"/>
                </mxCell>
                <mxCell id="LT4Kte8hWnlcqvlqRsRe-16" value="plate_motor" style="rounded=0;whiteSpace=wrap;html=1;" vertex="1" parent="LT4Kte8hWnlcqvlqRsRe-1">
                    <mxGeometry x="800" y="140" width="120" height="60" as="geometry"/>
                </mxCell>
                <mxCell id="LT4Kte8hWnlcqvlqRsRe-17" value="crane_motor" style="rounded=0;whiteSpace=wrap;html=1;" vertex="1" parent="LT4Kte8hWnlcqvlqRsRe-1">
                    <mxGeometry x="800" y="200" width="120" height="60" as="geometry"/>
                </mxCell>
                <mxCell id="LT4Kte8hWnlcqvlqRsRe-18" value="VGA_control" style="rounded=0;whiteSpace=wrap;html=1;" vertex="1" parent="LT4Kte8hWnlcqvlqRsRe-1">
                    <mxGeometry x="800" y="310" width="120" height="70" as="geometry"/>
                </mxCell>
                <mxCell id="C49u5-LEwqkDRs2ZQ6qo-1" value="" style="rounded=0;whiteSpace=wrap;html=1;fillColor=none;dashed=1;" vertex="1" parent="LT4Kte8hWnlcqvlqRsRe-1">
                    <mxGeometry x="580" y="60" width="400" height="230" as="geometry"/>
                </mxCell>
                <mxCell id="C49u5-LEwqkDRs2ZQ6qo-2" value="" style="rounded=0;whiteSpace=wrap;html=1;fillColor=none;dashed=1;" vertex="1" parent="LT4Kte8hWnlcqvlqRsRe-1">
                    <mxGeometry x="580" y="290" width="400" height="140" as="geometry"/>
                </mxCell>
            </root>
        </mxGraphModel>
    </diagram>
</mxfile>